<?xml version="1.0" standalone="no"?>
<!DOCTYPE svg PUBLIC "-//W3C//DTD SVG 20010904//EN"
 "http://www.w3.org/TR/2001/REC-SVG-20010904/DTD/svg10.dtd">
<svg version="1.0" xmlns="http://www.w3.org/2000/svg"
 width="512.000000pt" height="512.000000pt" viewBox="0 0 512.000000 512.000000"
 preserveAspectRatio="xMidYMid meet">
<metadata>
Created by potrace 1.11, written by Peter Selinger 2001-2013
</metadata>
<g transform="translate(0.000000,512.000000) scale(0.100000,-0.100000)"
fill="#000000" stroke="none">
<path d="M1157 4875 c-1 -2 -33 -5 -72 -8 -81 -6 -201 -35 -301 -73 -314 -118
-572 -373 -697 -691 -20 -50 -39 -102 -41 -114 -3 -13 -10 -42 -15 -64 -32
-129 -35 -369 -7 -504 88 -427 392 -774 801 -915 239 -83 541 -84 780 -4 284
95 539 310 687 578 140 253 181 607 104 891 -58 215 -154 379 -318 546 -162
165 -410 299 -617 334 -31 5 -72 12 -91 15 -34 6 -208 13 -213 9z"/>
<path d="M3785 4869 c-219 -21 -408 -92 -594 -223 -80 -57 -207 -180 -263
-256 -158 -215 -237 -446 -243 -707 -11 -592 392 -1096 976 -1219 88 -19 330
-26 419 -12 478 73 880 434 1000 897 37 143 47 399 21 526 -93 449 -400 801
-817 938 -166 54 -328 73 -499 56z"/>
<path d="M522 1694 c-70 -18 -105 -38 -158 -86 -82 -76 -116 -157 -119 -290
-1 -49 -4 -90 -6 -93 -3 -2 -37 -5 -77 -6 -82 -2 -122 -21 -147 -69 -18 -35
-14 -87 10 -124 23 -34 66 -49 146 -50 38 -1 69 -5 70 -11 1 -5 2 -147 3 -315
1 -223 5 -313 14 -336 25 -59 106 -83 169 -50 54 27 63 69 62 298 -1 112 0
250 0 308 l1 105 138 1 c115 0 142 3 165 19 54 35 73 110 41 164 -29 50 -48
55 -201 59 -99 3 -143 7 -144 15 -1 7 -1 39 0 72 2 123 38 154 186 159 103 3
137 17 162 67 28 55 4 131 -50 161 -31 17 -202 18 -265 2z"/>
<path d="M1057 1695 c-41 -14 -61 -34 -75 -75 -6 -19 -9 -1141 -3 -1272 1 -38
48 -87 93 -97 27 -6 46 -4 75 9 72 33 68 -6 71 703 2 570 1 641 -14 672 -28
59 -84 82 -147 60z"/>
<path d="M1565 1703 c-81 -21 -118 -110 -75 -181 64 -105 219 -55 220 70 0 68
-77 127 -145 111z"/>
<path d="M3250 1696 c-20 -6 -44 -25 -57 -45 l-22 -33 -1 -634 c0 -688 -1
-682 54 -718 35 -22 99 -23 132 -1 44 28 59 79 59 193 l-1 102 146 -146 c80
-80 154 -150 163 -156 28 -15 92 -12 120 6 37 25 60 80 52 123 -7 40 -33 69
-262 297 -79 77 -143 144 -143 148 0 4 53 44 118 87 141 97 146 101 156 126
26 63 8 122 -47 156 -51 31 -96 19 -208 -55 l-95 -64 0 262 c0 281 -3 301 -54
337 -33 24 -68 29 -110 15z"/>
<path d="M1531 1204 c-15 -6 -36 -24 -46 -40 -19 -28 -20 -49 -20 -434 0 -389
1 -406 20 -432 38 -51 109 -65 165 -32 55 33 57 51 56 479 -1 434 0 426 -70
459 -36 17 -64 17 -105 0z"/>
<path d="M2315 1201 c-210 -61 -344 -224 -361 -441 -12 -142 52 -297 161 -393
46 -40 141 -88 208 -106 70 -18 189 -21 261 -7 111 21 260 97 310 159 33 41
37 90 11 135 -37 62 -95 74 -169 36 -28 -15 -53 -30 -56 -33 -17 -24 -123 -54
-202 -59 -80 -4 -92 -3 -143 22 -62 31 -100 73 -124 137 -32 86 -13 174 54
247 50 56 107 76 214 75 96 -1 149 -19 236 -78 56 -38 87 -47 126 -33 87 30
108 147 38 209 -52 44 -143 98 -202 119 -86 31 -275 36 -362 11z"/>
<path d="M4233 1213 c-34 -7 -80 -58 -85 -95 -3 -18 -4 -202 -4 -409 1 -339 3
-378 19 -402 44 -68 132 -80 185 -26 38 39 41 59 43 243 1 164 11 210 63 287
63 95 157 149 284 164 45 5 71 14 92 32 79 66 43 191 -59 208 -88 15 -261 -33
-354 -97 -26 -19 -27 -19 -33 -1 -15 46 -25 63 -47 77 -26 18 -72 26 -104 19z"/>
</g>
</svg>
