<?xml version="1.0" standalone="no"?>
<!DOCTYPE svg PUBLIC "-//W3C//DTD SVG 20010904//EN"
 "http://www.w3.org/TR/2001/REC-SVG-20010904/DTD/svg10.dtd">
<svg version="1.0" xmlns="http://www.w3.org/2000/svg"
 width="148.000000pt" height="148.000000pt" viewBox="0 0 148.000000 148.000000"
 preserveAspectRatio="xMidYMid meet">
<metadata>
Created by potrace 1.11, written by Peter Selinger 2001-2013
</metadata>
<g transform="translate(0.000000,148.000000) scale(0.100000,-0.100000)"
fill="#000000" stroke="none">
<path d="M1033 1425 c-67 -32 -140 -106 -169 -172 l-23 -52 -68 20 c-37 12
-81 24 -98 29 -16 4 -50 14 -75 22 -133 44 -125 43 -203 18 -148 -48 -214 -68
-304 -96 l-93 -28 0 -568 0 -568 25 0 c14 0 33 4 43 9 9 5 64 24 122 41 58 18
144 45 192 61 66 21 95 26 115 19 38 -11 136 -41 263 -79 58 -18 113 -36 122
-41 23 -13 74 -13 96 0 9 5 69 25 132 44 63 19 153 47 200 63 l85 29 3 354 2
355 30 62 c17 34 30 69 30 77 0 8 5 18 10 21 6 3 10 40 10 80 0 58 -6 86 -25
129 -29 63 -100 139 -153 162 -20 8 -45 20 -54 25 -10 5 -50 9 -90 8 -56 0
-85 -6 -125 -24z m171 -143 c3 -5 -4 -21 -15 -38 -10 -16 -19 -32 -19 -36 0
-5 29 -8 64 -8 36 0 68 -4 71 -10 4 -6 -11 -10 -38 -10 -24 0 -47 -3 -50 -6
-4 -4 9 -35 28 -69 19 -34 35 -67 35 -73 0 -24 -19 -11 -41 28 -13 22 -26 40
-30 40 -4 0 -24 -30 -44 -66 -27 -47 -40 -63 -48 -55 -8 8 -5 22 11 50 12 21
22 41 22 45 0 3 -31 6 -69 6 -39 0 -73 5 -76 10 -4 6 15 10 49 10 31 0 56 3
56 6 0 3 -16 34 -35 68 -31 56 -35 76 -16 76 4 0 15 -16 25 -35 11 -19 23 -35
27 -35 4 0 22 25 39 55 30 53 43 64 54 47z m-749 -113 c0 -84 0 -84 -25 -81
-14 1 -30 -4 -36 -13 -8 -11 -14 -12 -19 -6 -10 17 -43 13 -54 -8 -7 -12 -18
-17 -34 -14 -28 5 -61 -22 -53 -44 3 -7 1 -22 -6 -32 -6 -11 -8 -26 -3 -37 4
-11 7 -27 6 -37 -3 -20 56 -87 76 -87 6 0 26 12 43 27 59 49 110 6 110 -94 0
-29 5 -53 10 -53 6 0 10 10 10 22 l0 23 23 -23 c63 -62 143 -122 162 -122 12
0 34 -14 50 -30 16 -17 35 -28 43 -25 8 3 16 -3 19 -15 3 -12 18 -27 34 -36
35 -18 45 -53 30 -104 -16 -56 -14 -69 15 -76 21 -5 31 -2 45 17 l19 24 0 -67
c0 -39 4 -68 10 -68 8 0 16 99 11 151 -1 8 7 24 19 34 21 19 19 57 -6 86 -8 8
-14 23 -14 31 0 21 37 12 53 -13 18 -28 55 -24 63 6 9 35 -14 66 -70 93 l-46
23 1 105 c0 104 8 124 30 82 32 -60 175 -220 193 -216 16 4 154 164 169 195 5
12 14 20 18 17 5 -3 9 -138 9 -300 l0 -294 -22 -9 c-13 -5 -81 -27 -153 -49
-71 -22 -160 -50 -197 -61 -49 -15 -73 -18 -85 -11 -15 8 -112 38 -228 70 -16
5 -66 19 -110 32 l-80 24 -3 132 c-3 170 -22 177 -22 8 0 -94 -3 -126 -14
-135 -8 -7 -43 -20 -78 -31 -54 -15 -232 -71 -306 -94 l-22 -7 2 528 3 528 60
18 c33 10 121 38 195 62 74 24 140 42 145 41 6 -2 10 -39 10 -87z m170 52
c228 -69 209 -59 216 -116 8 -58 32 -132 60 -181 16 -29 19 -55 19 -165 0 -99
-3 -130 -12 -127 -7 3 -15 15 -18 29 -4 16 -14 25 -30 27 -79 8 -101 22 -125
76 -14 33 -39 65 -63 85 -35 27 -40 36 -38 71 1 36 4 41 39 55 35 14 37 17 37
60 0 48 -16 65 -63 65 -17 0 -26 7 -30 21 -6 23 -5 23 -109 2 l-28 -5 0 71 c0
39 4 71 8 71 4 0 66 -18 137 -39z m-36 -145 c6 -7 25 -16 42 -20 41 -8 35 -37
-11 -52 -34 -11 -35 -13 -37 -70 -1 -58 -1 -59 47 -104 26 -25 55 -62 63 -83
21 -48 61 -85 103 -93 20 -4 34 -12 34 -21 0 -8 21 -23 46 -34 44 -20 45 -21
30 -44 -21 -32 -20 -74 1 -97 15 -17 15 -21 0 -51 l-16 -32 0 38 c-1 50 -25
104 -49 111 -11 4 -27 18 -36 31 -9 14 -23 25 -31 25 -8 0 -26 11 -41 25 -15
14 -37 25 -50 25 -20 0 -81 47 -153 117 -30 30 -51 112 -50 196 1 95 6 114 40
133 31 17 54 17 68 0z m-194 -86 c7 0 17 9 20 21 4 12 14 19 23 17 14 -3 18
-17 20 -75 l3 -72 -41 16 c-39 16 -42 15 -68 -4 -22 -16 -31 -18 -47 -9 -11 6
-22 12 -24 13 -1 1 0 25 4 52 5 40 11 51 25 51 10 0 23 7 30 15 11 14 14 13
27 -5 8 -11 20 -20 28 -20z"/>
<path d="M460 580 c0 -40 4 -70 10 -70 6 0 10 30 10 70 0 40 -4 70 -10 70 -6
0 -10 -30 -10 -70z"/>
<path d="M340 602 l-35 -17 4 -85 c5 -120 19 -138 84 -107 34 15 51 70 45 146
-4 37 -11 58 -23 67 -24 18 -32 17 -75 -4z m56 -115 c-3 -18 -15 -38 -27 -45
-20 -13 -20 -12 -13 50 4 35 12 66 18 70 16 10 29 -36 22 -75z"/>
<path d="M715 346 c-27 -9 -47 -10 -65 -3 -54 20 -101 -13 -86 -61 3 -9 29
-28 58 -42 29 -13 64 -32 77 -42 51 -38 85 -18 88 54 2 29 4 64 6 78 3 30 -18
34 -78 16z m-69 -47 c4 -7 22 -9 49 -5 41 7 42 6 49 -25 8 -40 -1 -55 -22 -36
-10 8 -38 26 -64 39 -26 14 -45 28 -41 32 10 9 21 7 29 -5z"/>
<path d="M918 145 c-6 -28 8 -43 24 -27 11 11 2 52 -12 52 -4 0 -10 -11 -12
-25z"/>
</g>
</svg>
