<?xml version="1.0" encoding="UTF-8"?>
<svg xmlns="http://www.w3.org/2000/svg" xmlns:xlink="http://www.w3.org/1999/xlink" width="20pt" height="25pt" viewBox="0 0 20 25" version="1.1">
<g id="surface1">
<path style=" stroke:none;fill-rule:nonzero;fill:rgb(0%,0%,0%);fill-opacity:1;" d="M 9.304688 0.046875 C 7.664062 0.1875 6.164062 0.65625 4.800781 1.453125 C 2.242188 2.949219 0.484375 5.582031 0.0703125 8.558594 C 0.0078125 8.996094 0 10.214844 0.0546875 10.652344 C 0.335938 12.917969 1.25 15.023438 3.011719 17.46875 C 3.433594 18.058594 3.867188 18.589844 4.582031 19.398438 C 5.886719 20.875 7.902344 23.015625 9.265625 24.371094 L 9.894531 24.992188 L 9.957031 24.933594 C 10.046875 24.859375 11.042969 23.796875 11.789062 22.980469 C 14.910156 19.574219 17.351562 16.691406 18.316406 15.277344 C 18.816406 14.550781 19.398438 13.203125 19.675781 12.125 C 19.78125 11.703125 19.898438 11.109375 19.949219 10.683594 C 20 10.269531 20 9.15625 19.949219 8.746094 C 19.65625 6.375 18.664062 4.386719 16.957031 2.78125 C 15.359375 1.269531 13.488281 0.402344 11.175781 0.101562 C 10.851562 0.0585938 9.589844 0.0195312 9.304688 0.046875 Z M 11.191406 1.53125 C 13.507812 1.871094 15.492188 3.019531 16.863281 4.8125 C 18.382812 6.800781 18.914062 9.382812 18.292969 11.765625 C 17.765625 13.800781 16.492188 15.542969 14.6875 16.703125 C 14.078125 17.097656 13.191406 17.503906 12.511719 17.703125 C 9.785156 18.503906 6.898438 17.964844 4.660156 16.242188 C 4.269531 15.941406 3.644531 15.332031 3.335938 14.953125 C 2.417969 13.828125 1.824219 12.535156 1.578125 11.125 C 1.378906 9.988281 1.425781 8.863281 1.722656 7.71875 C 2.574219 4.449219 5.378906 2.003906 8.8125 1.535156 C 9.449219 1.449219 9.433594 1.449219 10.136719 1.460938 C 10.589844 1.46875 10.894531 1.488281 11.191406 1.53125 Z M 11.191406 1.53125 "/>
<path style=" stroke:none;fill-rule:nonzero;fill:rgb(0%,0%,0%);fill-opacity:1;" d="M 7.386719 3.589844 C 7.292969 3.640625 7.160156 3.765625 7.113281 3.855469 C 7.089844 3.898438 6.972656 4.21875 6.859375 4.566406 C 6.738281 4.910156 6.609375 5.238281 6.574219 5.296875 C 6.535156 5.355469 6.441406 5.445312 6.367188 5.488281 L 6.226562 5.566406 L 5.292969 5.570312 C 4.167969 5.578125 4.105469 5.582031 3.878906 5.679688 C 3.488281 5.847656 3.25 6.105469 3.089844 6.527344 L 3.003906 6.765625 L 3.003906 13.195312 L 3.085938 13.417969 C 3.257812 13.863281 3.570312 14.171875 3.984375 14.296875 C 4.074219 14.324219 4.160156 14.359375 4.171875 14.371094 C 4.210938 14.402344 15.765625 14.40625 15.800781 14.371094 C 15.816406 14.359375 15.890625 14.332031 15.964844 14.3125 C 16.289062 14.222656 16.625 13.957031 16.789062 13.652344 C 16.839844 13.5625 16.910156 13.378906 16.941406 13.25 C 17.003906 13.015625 17.003906 12.957031 17.003906 9.972656 C 17.003906 6.632812 17.007812 6.722656 16.820312 6.34375 C 16.660156 6.011719 16.339844 5.742188 15.980469 5.632812 C 15.816406 5.582031 15.703125 5.578125 14.847656 5.578125 C 13.734375 5.582031 13.660156 5.570312 13.476562 5.367188 C 13.375 5.257812 13.328125 5.144531 13.128906 4.554688 C 12.984375 4.144531 12.855469 3.820312 12.808594 3.757812 C 12.648438 3.542969 12.816406 3.554688 9.980469 3.554688 C 8.191406 3.558594 7.429688 3.566406 7.386719 3.589844 Z M 10.359375 6.257812 C 11.4375 6.351562 12.46875 7 13.015625 7.933594 C 14 9.601562 13.375 11.722656 11.640625 12.621094 C 11.089844 12.90625 10.640625 13.015625 10.019531 13.015625 C 9.039062 13.023438 8.214844 12.695312 7.527344 12.027344 C 6.851562 11.367188 6.511719 10.5625 6.511719 9.625 C 6.511719 8.722656 6.835938 7.933594 7.476562 7.289062 C 7.867188 6.898438 8.226562 6.65625 8.730469 6.464844 C 9.261719 6.265625 9.742188 6.203125 10.359375 6.257812 Z M 15.308594 6.972656 C 15.492188 7.066406 15.582031 7.21875 15.566406 7.421875 C 15.535156 7.890625 14.9375 8.03125 14.664062 7.632812 C 14.574219 7.503906 14.574219 7.3125 14.664062 7.15625 C 14.738281 7.023438 14.9375 6.910156 15.085938 6.910156 C 15.136719 6.910156 15.238281 6.9375 15.308594 6.972656 Z M 15.308594 6.972656 "/>
<path style=" stroke:none;fill-rule:nonzero;fill:rgb(0%,0%,0%);fill-opacity:1;" d="M 9.558594 7.648438 C 9.445312 7.671875 9.222656 7.753906 9.066406 7.824219 C 8.832031 7.9375 8.738281 8.003906 8.527344 8.210938 C 8.3125 8.417969 8.25 8.503906 8.136719 8.730469 C 7.835938 9.335938 7.832031 9.921875 8.128906 10.507812 C 8.386719 11.015625 8.789062 11.367188 9.339844 11.550781 C 9.632812 11.648438 10.117188 11.675781 10.433594 11.609375 C 10.863281 11.523438 11.339844 11.238281 11.609375 10.902344 C 11.777344 10.703125 11.957031 10.339844 12.019531 10.085938 C 12.082031 9.84375 12.082031 9.449219 12.019531 9.183594 C 11.773438 8.113281 10.664062 7.421875 9.558594 7.648438 Z M 9.558594 7.648438 "/>
</g>
</svg>
